<mxfile host="65bd71144e">
    <diagram id="app-semantic-layer" name="App Semantic Layer" compressed="false">
        <mxGraphModel dx="736" dy="605" grid="1" gridSize="10" guides="1" tooltips="1" connect="1" arrows="1" fold="1" page="1" pageScale="1" pageWidth="850" pageHeight="1100" math="0" shadow="0">
            <root>
                <mxCell id="0"/>
                <mxCell id="1" parent="0"/>
                <mxCell id="2" value="Semantic Layer Diagram&#xa;Coming Soon" style="rounded=1;whiteSpace=wrap;html=1;fillColor=#d5e8d4;strokeColor=#82b366;fontStyle=1;" parent="1" vertex="1">
                    <mxGeometry x="280" y="160" width="230" height="110" as="geometry"/>
                </mxCell>
            </root>
        </mxGraphModel>
    </diagram>
</mxfile>